# MagicaVoxel @ Ephtracy

# group
o 

# material
mtllib corn_plants.vox.mtl
usemtl palette

# normals
vn -1 0 0
vn 1 0 0
vn 0 0 1
vn 0 0 -1
vn 0 -1 0
vn 0 1 0

# texcoords
vt 0.150391 0.5
vt 0.177734 0.5
vt 0.435547 0.5
vt 0.486328 0.5
vt 0.794922 0.5

# verts
v 1.1 0.2 -1.5
v 1.1 0.2 -1.7
v 1.1 0.3 -1.5
v 1.1 0.3 -1.7
v 1.1 0.3 -1.8
v 1.1 0.4 -1.7
v 1.1 0.4 -1.8
v 1.2 0.1 -1.5
v 1.2 0.1 -1.7
v 1.2 0.2 -1.4
v 1.2 0.2 -1.5
v 1.2 0.2 -1.7
v 1.2 0.2 -1.8
v 1.2 0.3 -1.3
v 1.2 0.3 -1.4
v 1.2 0.3 -1.5
v 1.2 0.3 -1.7
v 1.2 0.3 -1.8
v 1.2 0.4 -1.3
v 1.2 0.4 -1.4
v 1.2 0.4 -1.5
v 1.2 0.4 -1.7
v 1.2 0.5 -1.5
v 1.2 0.5 -1.7
v 1.2 0.6 -1.5
v 1.2 0.6 -1.7
v 1.2 0.7 -1.5
v 1.2 0.7 -1.7
v 1.2 0.8 -1.5
v 1.2 0.8 -1.7
v 1.2 0.9 -1.5
v 1.2 0.9 -1.7
v 1.2 1 -1.5
v 1.2 1 -1.7
v 1.2 1.1 -1.5
v 1.2 1.1 -1.7
v 1.2 1.2 -1.5
v 1.2 1.2 -1.7
v 1.2 1.3 -1.5
v 1.2 1.3 -1.7
v 1.3 0 -1.5
v 1.3 0 -1.7
v 1.3 0.1 -1.4
v 1.3 0.1 -1.5
v 1.3 0.1 -1.7
v 1.3 0.1 -1.8
v 1.3 0.2 -1.3
v 1.3 0.2 -1.4
v 1.3 0.2 -1.5
v 1.3 0.2 -1.7
v 1.3 0.2 -1.8
v 1.3 0.2 -1.9
v 1.3 0.3 -1.2
v 1.3 0.3 -1.3
v 1.3 0.3 -1.4
v 1.3 0.3 -1.5
v 1.3 0.3 -1.7
v 1.3 0.3 -1.8
v 1.3 0.4 -1.3
v 1.3 0.4 -1.4
v 1.3 0.4 -1.5
v 1.3 0.4 -1.7
v 1.3 0.4 -1.8
v 1.3 0.4 -1.9
v 1.3 0.5 -1.2
v 1.3 0.5 -1.3
v 1.3 0.5 -1.4
v 1.3 0.5 -1.5
v 1.3 0.5 -1.7
v 1.3 0.5 -1.8
v 1.3 0.6 -1.4
v 1.3 0.6 -1.5
v 1.3 0.6 -1.7
v 1.3 0.6 -1.8
v 1.3 0.7 -1.4
v 1.3 0.7 -1.5
v 1.3 0.7 -1.7
v 1.3 0.7 -1.8
v 1.3 0.8 -1.4
v 1.3 0.8 -1.5
v 1.3 0.8 -1.7
v 1.3 0.8 -1.8
v 1.3 0.9 -1.4
v 1.3 0.9 -1.5
v 1.3 0.9 -1.7
v 1.3 0.9 -1.8
v 1.3 1 -1.4
v 1.3 1 -1.5
v 1.3 1 -1.7
v 1.3 1 -1.8
v 1.3 1.1 -1.4
v 1.3 1.1 -1.5
v 1.3 1.1 -1.7
v 1.3 1.1 -1.8
v 1.3 1.2 -1.4
v 1.3 1.2 -1.5
v 1.3 1.2 -1.7
v 1.3 1.2 -1.8
v 1.3 1.3 -1.4
v 1.3 1.3 -1.5
v 1.3 1.3 -1.7
v 1.3 1.3 -1.8
v 1.3 1.4 -1.5
v 1.3 1.4 -1.7
v 1.3 1.5 -1.5
v 1.3 1.5 -1.7
v 1.5 0.3 -1.3
v 1.5 0.3 -1.4
v 1.5 0.4 -1.3
v 1.5 0.4 -1.4
v 1.6 0.5 -1.4
v 1.6 0.5 -1.5
v 1.6 0.5 -1.7
v 1.6 0.5 -1.8
v 1.6 0.6 -1.4
v 1.6 0.6 -1.5
v 1.6 0.6 -1.7
v 1.6 0.6 -1.8
v 1.7 0.5 -1.5
v 1.7 0.5 -1.7
v 1.7 0.6 -1.5
v 1.7 0.6 -1.7
v 1.2 0.3 -1.7
v 1.2 0.3 -1.8
v 1.2 0.4 -1.7
v 1.2 0.4 -1.8
v 1.3 0.3 -1.3
v 1.3 0.3 -1.4
v 1.3 0.4 -1.3
v 1.3 0.4 -1.4
v 1.5 0 -1.5
v 1.5 0 -1.7
v 1.5 0.1 -1.4
v 1.5 0.1 -1.5
v 1.5 0.1 -1.7
v 1.5 0.1 -1.8
v 1.5 0.2 -1.3
v 1.5 0.2 -1.4
v 1.5 0.2 -1.5
v 1.5 0.2 -1.7
v 1.5 0.2 -1.8
v 1.5 0.2 -1.9
v 1.5 0.3 -1.2
v 1.5 0.3 -1.3
v 1.5 0.3 -1.4
v 1.5 0.3 -1.7
v 1.5 0.3 -1.8
v 1.5 0.4 -1.3
v 1.5 0.4 -1.7
v 1.5 0.4 -1.8
v 1.5 0.4 -1.9
v 1.5 0.5 -1.2
v 1.5 0.5 -1.3
v 1.5 0.5 -1.4
v 1.5 0.5 -1.5
v 1.5 0.5 -1.7
v 1.5 0.5 -1.8
v 1.5 0.6 -1.4
v 1.5 0.6 -1.5
v 1.5 0.6 -1.7
v 1.5 0.6 -1.8
v 1.5 0.7 -1.4
v 1.5 0.7 -1.5
v 1.5 0.7 -1.7
v 1.5 0.7 -1.8
v 1.5 0.8 -1.4
v 1.5 0.8 -1.5
v 1.5 0.8 -1.7
v 1.5 0.8 -1.8
v 1.5 0.9 -1.4
v 1.5 0.9 -1.5
v 1.5 0.9 -1.7
v 1.5 0.9 -1.8
v 1.5 1 -1.4
v 1.5 1 -1.5
v 1.5 1 -1.7
v 1.5 1 -1.8
v 1.5 1.1 -1.4
v 1.5 1.1 -1.5
v 1.5 1.1 -1.7
v 1.5 1.1 -1.8
v 1.5 1.2 -1.4
v 1.5 1.2 -1.5
v 1.5 1.2 -1.7
v 1.5 1.2 -1.8
v 1.5 1.3 -1.4
v 1.5 1.3 -1.5
v 1.5 1.3 -1.7
v 1.5 1.3 -1.8
v 1.5 1.4 -1.5
v 1.5 1.4 -1.7
v 1.5 1.5 -1.5
v 1.5 1.5 -1.7
v 1.6 0.1 -1.5
v 1.6 0.1 -1.7
v 1.6 0.2 -1.4
v 1.6 0.2 -1.5
v 1.6 0.2 -1.7
v 1.6 0.2 -1.8
v 1.6 0.3 -1.3
v 1.6 0.3 -1.4
v 1.6 0.3 -1.7
v 1.6 0.3 -1.8
v 1.6 0.4 -1.3
v 1.6 0.4 -1.4
v 1.6 0.5 -1.4
v 1.6 0.5 -1.5
v 1.6 0.5 -1.7
v 1.6 0.6 -1.5
v 1.6 0.6 -1.7
v 1.6 0.7 -1.5
v 1.6 0.7 -1.7
v 1.6 0.8 -1.5
v 1.6 0.8 -1.7
v 1.6 0.9 -1.5
v 1.6 0.9 -1.7
v 1.6 1 -1.5
v 1.6 1 -1.7
v 1.6 1.1 -1.5
v 1.6 1.1 -1.7
v 1.6 1.2 -1.5
v 1.6 1.2 -1.7
v 1.6 1.3 -1.5
v 1.6 1.3 -1.7
v 1.7 0.2 -1.5
v 1.7 0.2 -1.7
v 1.7 0.3 -1.5
v 1.7 0.3 -1.6
v 1.7 0.4 -1.6
v 1.7 0.4 -1.7
v 1.7 0.5 -1.4
v 1.7 0.5 -1.5
v 1.7 0.5 -1.7
v 1.7 0.5 -1.8
v 1.7 0.6 -1.4
v 1.7 0.6 -1.5
v 1.7 0.6 -1.7
v 1.7 0.6 -1.8
v 1.8 0.3 -1.5
v 1.8 0.3 -1.6
v 1.8 0.4 -1.6
v 1.8 0.4 -1.7
v 1.8 0.6 -1.5
v 1.8 0.6 -1.7
v 1.3 0.3 -1.2
v 1.3 0.5 -1.2
v 1.5 0.3 -1.2
v 1.5 0.5 -1.2
v 1.2 0.3 -1.3
v 1.2 0.4 -1.3
v 1.3 0.2 -1.3
v 1.3 0.3 -1.3
v 1.3 0.4 -1.3
v 1.5 0.2 -1.3
v 1.5 0.3 -1.3
v 1.5 0.4 -1.3
v 1.6 0.3 -1.3
v 1.6 0.4 -1.3
v 1.2 0.2 -1.4
v 1.2 0.3 -1.4
v 1.3 0.1 -1.4
v 1.3 0.2 -1.4
v 1.3 0.3 -1.4
v 1.3 0.4 -1.4
v 1.3 0.5 -1.4
v 1.3 0.6 -1.4
v 1.3 0.7 -1.4
v 1.3 0.8 -1.4
v 1.3 0.9 -1.4
v 1.3 1 -1.4
v 1.3 1.1 -1.4
v 1.3 1.2 -1.4
v 1.3 1.3 -1.4
v 1.5 0.1 -1.4
v 1.5 0.2 -1.4
v 1.5 0.3 -1.4
v 1.5 0.4 -1.4
v 1.5 0.5 -1.4
v 1.5 0.6 -1.4
v 1.5 0.7 -1.4
v 1.5 0.8 -1.4
v 1.5 0.9 -1.4
v 1.5 1 -1.4
v 1.5 1.1 -1.4
v 1.5 1.2 -1.4
v 1.5 1.3 -1.4
v 1.6 0.2 -1.4
v 1.6 0.3 -1.4
v 1.6 0.4 -1.4
v 1.6 0.5 -1.4
v 1.6 0.6 -1.4
v 1.7 0.5 -1.4
v 1.7 0.6 -1.4
v 1.1 0.2 -1.5
v 1.1 0.3 -1.5
v 1.2 0.1 -1.5
v 1.2 0.2 -1.5
v 1.2 0.3 -1.5
v 1.2 0.4 -1.5
v 1.2 0.5 -1.5
v 1.2 0.6 -1.5
v 1.2 0.7 -1.5
v 1.2 0.8 -1.5
v 1.2 0.9 -1.5
v 1.2 1 -1.5
v 1.2 1.1 -1.5
v 1.2 1.2 -1.5
v 1.2 1.3 -1.5
v 1.3 0 -1.5
v 1.3 0.1 -1.5
v 1.3 0.2 -1.5
v 1.3 0.3 -1.5
v 1.3 0.4 -1.5
v 1.3 0.5 -1.5
v 1.3 0.6 -1.5
v 1.3 0.7 -1.5
v 1.3 0.8 -1.5
v 1.3 0.9 -1.5
v 1.3 1 -1.5
v 1.3 1.1 -1.5
v 1.3 1.2 -1.5
v 1.3 1.3 -1.5
v 1.3 1.4 -1.5
v 1.3 1.5 -1.5
v 1.5 0 -1.5
v 1.5 0.1 -1.5
v 1.5 0.2 -1.5
v 1.5 0.5 -1.5
v 1.5 0.6 -1.5
v 1.5 0.7 -1.5
v 1.5 0.8 -1.5
v 1.5 0.9 -1.5
v 1.5 1 -1.5
v 1.5 1.1 -1.5
v 1.5 1.2 -1.5
v 1.5 1.3 -1.5
v 1.5 1.4 -1.5
v 1.5 1.5 -1.5
v 1.6 0.1 -1.5
v 1.6 0.2 -1.5
v 1.6 0.5 -1.5
v 1.6 0.6 -1.5
v 1.6 0.7 -1.5
v 1.6 0.8 -1.5
v 1.6 0.9 -1.5
v 1.6 1 -1.5
v 1.6 1.1 -1.5
v 1.6 1.2 -1.5
v 1.6 1.3 -1.5
v 1.7 0.2 -1.5
v 1.7 0.3 -1.5
v 1.7 0.5 -1.5
v 1.7 0.6 -1.5
v 1.8 0.3 -1.5
v 1.8 0.6 -1.5
v 1.1 0.3 -1.7
v 1.1 0.4 -1.7
v 1.2 0.3 -1.7
v 1.2 0.4 -1.7
v 1.6 0.5 -1.7
v 1.6 0.6 -1.7
v 1.7 0.5 -1.7
v 1.7 0.6 -1.7
v 1.3 0.3 -1.3
v 1.3 0.4 -1.3
v 1.3 0.5 -1.3
v 1.5 0.3 -1.3
v 1.5 0.4 -1.3
v 1.5 0.5 -1.3
v 1.2 0.3 -1.4
v 1.2 0.4 -1.4
v 1.3 0.3 -1.4
v 1.3 0.4 -1.4
v 1.6 0.5 -1.5
v 1.6 0.6 -1.5
v 1.7 0.5 -1.5
v 1.7 0.6 -1.5
v 1.7 0.3 -1.6
v 1.7 0.4 -1.6
v 1.8 0.3 -1.6
v 1.8 0.4 -1.6
v 1.1 0.2 -1.7
v 1.1 0.3 -1.7
v 1.2 0.1 -1.7
v 1.2 0.2 -1.7
v 1.2 0.3 -1.7
v 1.2 0.4 -1.7
v 1.2 0.5 -1.7
v 1.2 0.6 -1.7
v 1.2 0.7 -1.7
v 1.2 0.8 -1.7
v 1.2 0.9 -1.7
v 1.2 1 -1.7
v 1.2 1.1 -1.7
v 1.2 1.2 -1.7
v 1.2 1.3 -1.7
v 1.3 0 -1.7
v 1.3 0.1 -1.7
v 1.3 0.2 -1.7
v 1.3 0.3 -1.7
v 1.3 0.4 -1.7
v 1.3 0.5 -1.7
v 1.3 0.6 -1.7
v 1.3 0.7 -1.7
v 1.3 0.8 -1.7
v 1.3 0.9 -1.7
v 1.3 1 -1.7
v 1.3 1.1 -1.7
v 1.3 1.2 -1.7
v 1.3 1.3 -1.7
v 1.3 1.4 -1.7
v 1.3 1.5 -1.7
v 1.5 0 -1.7
v 1.5 0.1 -1.7
v 1.5 0.2 -1.7
v 1.5 0.3 -1.7
v 1.5 0.4 -1.7
v 1.5 0.5 -1.7
v 1.5 0.6 -1.7
v 1.5 0.7 -1.7
v 1.5 0.8 -1.7
v 1.5 0.9 -1.7
v 1.5 1 -1.7
v 1.5 1.1 -1.7
v 1.5 1.2 -1.7
v 1.5 1.3 -1.7
v 1.5 1.4 -1.7
v 1.5 1.5 -1.7
v 1.6 0.1 -1.7
v 1.6 0.2 -1.7
v 1.6 0.3 -1.7
v 1.6 0.4 -1.7
v 1.6 0.5 -1.7
v 1.6 0.6 -1.7
v 1.6 0.7 -1.7
v 1.6 0.8 -1.7
v 1.6 0.9 -1.7
v 1.6 1 -1.7
v 1.6 1.1 -1.7
v 1.6 1.2 -1.7
v 1.6 1.3 -1.7
v 1.7 0.2 -1.7
v 1.7 0.4 -1.7
v 1.7 0.5 -1.7
v 1.7 0.6 -1.7
v 1.8 0.4 -1.7
v 1.8 0.6 -1.7
v 1.1 0.3 -1.8
v 1.1 0.4 -1.8
v 1.2 0.2 -1.8
v 1.2 0.3 -1.8
v 1.2 0.4 -1.8
v 1.3 0.1 -1.8
v 1.3 0.2 -1.8
v 1.3 0.3 -1.8
v 1.3 0.4 -1.8
v 1.3 0.5 -1.8
v 1.3 0.6 -1.8
v 1.3 0.7 -1.8
v 1.3 0.8 -1.8
v 1.3 0.9 -1.8
v 1.3 1 -1.8
v 1.3 1.1 -1.8
v 1.3 1.2 -1.8
v 1.3 1.3 -1.8
v 1.5 0.1 -1.8
v 1.5 0.2 -1.8
v 1.5 0.3 -1.8
v 1.5 0.4 -1.8
v 1.5 0.5 -1.8
v 1.5 0.6 -1.8
v 1.5 0.7 -1.8
v 1.5 0.8 -1.8
v 1.5 0.9 -1.8
v 1.5 1 -1.8
v 1.5 1.1 -1.8
v 1.5 1.2 -1.8
v 1.5 1.3 -1.8
v 1.6 0.2 -1.8
v 1.6 0.3 -1.8
v 1.6 0.5 -1.8
v 1.6 0.6 -1.8
v 1.7 0.5 -1.8
v 1.7 0.6 -1.8
v 1.3 0.2 -1.9
v 1.3 0.4 -1.9
v 1.5 0.2 -1.9
v 1.5 0.4 -1.9
v 1.3 0 -1.5
v 1.5 0 -1.5
v 1.3 0 -1.7
v 1.5 0 -1.7
v 1.3 0.1 -1.4
v 1.5 0.1 -1.4
v 1.2 0.1 -1.5
v 1.3 0.1 -1.5
v 1.5 0.1 -1.5
v 1.6 0.1 -1.5
v 1.2 0.1 -1.7
v 1.3 0.1 -1.7
v 1.5 0.1 -1.7
v 1.6 0.1 -1.7
v 1.3 0.1 -1.8
v 1.5 0.1 -1.8
v 1.3 0.2 -1.3
v 1.5 0.2 -1.3
v 1.2 0.2 -1.4
v 1.3 0.2 -1.4
v 1.5 0.2 -1.4
v 1.6 0.2 -1.4
v 1.1 0.2 -1.5
v 1.2 0.2 -1.5
v 1.3 0.2 -1.5
v 1.5 0.2 -1.5
v 1.6 0.2 -1.5
v 1.7 0.2 -1.5
v 1.1 0.2 -1.7
v 1.2 0.2 -1.7
v 1.3 0.2 -1.7
v 1.5 0.2 -1.7
v 1.6 0.2 -1.7
v 1.7 0.2 -1.7
v 1.2 0.2 -1.8
v 1.3 0.2 -1.8
v 1.5 0.2 -1.8
v 1.6 0.2 -1.8
v 1.3 0.2 -1.9
v 1.5 0.2 -1.9
v 1.3 0.3 -1.2
v 1.5 0.3 -1.2
v 1.2 0.3 -1.3
v 1.3 0.3 -1.3
v 1.5 0.3 -1.3
v 1.6 0.3 -1.3
v 1.2 0.3 -1.4
v 1.3 0.3 -1.4
v 1.5 0.3 -1.4
v 1.6 0.3 -1.4
v 1.7 0.3 -1.5
v 1.8 0.3 -1.5
v 1.7 0.3 -1.6
v 1.8 0.3 -1.6
v 1.1 0.3 -1.7
v 1.2 0.3 -1.7
v 1.1 0.3 -1.8
v 1.2 0.3 -1.8
v 1.7 0.4 -1.6
v 1.8 0.4 -1.6
v 1.7 0.4 -1.7
v 1.8 0.4 -1.7
v 1.6 0.5 -1.4
v 1.7 0.5 -1.4
v 1.6 0.5 -1.5
v 1.7 0.5 -1.5
v 1.6 0.5 -1.7
v 1.7 0.5 -1.7
v 1.6 0.5 -1.8
v 1.7 0.5 -1.8
v 1.3 0.3 -1.3
v 1.5 0.3 -1.3
v 1.2 0.3 -1.4
v 1.3 0.3 -1.4
v 1.5 0.3 -1.4
v 1.1 0.3 -1.5
v 1.2 0.3 -1.5
v 1.3 0.3 -1.5
v 1.1 0.3 -1.7
v 1.2 0.3 -1.7
v 1.3 0.3 -1.7
v 1.5 0.3 -1.7
v 1.6 0.3 -1.7
v 1.2 0.3 -1.8
v 1.3 0.3 -1.8
v 1.5 0.3 -1.8
v 1.6 0.3 -1.8
v 1.2 0.4 -1.3
v 1.3 0.4 -1.3
v 1.5 0.4 -1.3
v 1.6 0.4 -1.3
v 1.2 0.4 -1.4
v 1.3 0.4 -1.4
v 1.5 0.4 -1.4
v 1.6 0.4 -1.4
v 1.1 0.4 -1.7
v 1.2 0.4 -1.7
v 1.1 0.4 -1.8
v 1.2 0.4 -1.8
v 1.3 0.4 -1.8
v 1.5 0.4 -1.8
v 1.3 0.4 -1.9
v 1.5 0.4 -1.9
v 1.3 0.5 -1.2
v 1.5 0.5 -1.2
v 1.3 0.5 -1.3
v 1.5 0.5 -1.3
v 1.5 0.5 -1.4
v 1.6 0.5 -1.4
v 1.5 0.5 -1.5
v 1.6 0.5 -1.5
v 1.7 0.5 -1.5
v 1.6 0.5 -1.7
v 1.7 0.5 -1.7
v 1.6 0.6 -1.4
v 1.7 0.6 -1.4
v 1.6 0.6 -1.5
v 1.7 0.6 -1.5
v 1.8 0.6 -1.5
v 1.6 0.6 -1.7
v 1.7 0.6 -1.7
v 1.8 0.6 -1.7
v 1.6 0.6 -1.8
v 1.7 0.6 -1.8
v 1.3 1.3 -1.4
v 1.5 1.3 -1.4
v 1.2 1.3 -1.5
v 1.3 1.3 -1.5
v 1.5 1.3 -1.5
v 1.6 1.3 -1.5
v 1.2 1.3 -1.7
v 1.3 1.3 -1.7
v 1.5 1.3 -1.7
v 1.6 1.3 -1.7
v 1.3 1.3 -1.8
v 1.5 1.3 -1.8
v 1.3 1.5 -1.5
v 1.5 1.5 -1.5
v 1.3 1.5 -1.7
v 1.5 1.5 -1.7

# faces
f 3/4/1 2/4/1 1/4/1
f 4/4/1 2/4/1 3/4/1
f 6/4/1 5/4/1 4/4/1
f 7/4/1 5/4/1 6/4/1
f 11/4/1 9/4/1 8/4/1
f 12/4/1 9/4/1 11/4/1
f 15/4/1 11/4/1 10/4/1
f 16/4/1 11/4/1 15/4/1
f 17/4/1 13/4/1 12/4/1
f 18/4/1 13/4/1 17/4/1
f 19/4/1 15/4/1 14/4/1
f 20/4/1 15/4/1 19/4/1
f 21/3/1 17/3/1 16/3/1
f 22/3/1 17/3/1 21/3/1
f 23/2/1 22/2/1 21/2/1
f 24/2/1 22/2/1 23/2/1
f 25/3/1 24/3/1 23/3/1
f 26/3/1 24/3/1 25/3/1
f 27/2/1 26/2/1 25/2/1
f 28/2/1 26/2/1 27/2/1
f 29/3/1 28/3/1 27/3/1
f 30/3/1 28/3/1 29/3/1
f 31/2/1 30/2/1 29/2/1
f 32/2/1 30/2/1 31/2/1
f 33/3/1 32/3/1 31/3/1
f 34/3/1 32/3/1 33/3/1
f 35/2/1 34/2/1 33/2/1
f 36/2/1 34/2/1 35/2/1
f 37/3/1 36/3/1 35/3/1
f 38/3/1 36/3/1 37/3/1
f 39/2/1 38/2/1 37/2/1
f 40/2/1 38/2/1 39/2/1
f 44/5/1 42/5/1 41/5/1
f 45/5/1 42/5/1 44/5/1
f 48/4/1 44/4/1 43/4/1
f 49/4/1 44/4/1 48/4/1
f 50/4/1 46/4/1 45/4/1
f 51/4/1 46/4/1 50/4/1
f 54/4/1 48/4/1 47/4/1
f 55/4/1 48/4/1 54/4/1
f 58/4/1 52/4/1 51/4/1
f 59/4/1 54/4/1 53/4/1
f 60/3/1 56/3/1 55/3/1
f 61/3/1 56/3/1 60/3/1
f 62/3/1 58/3/1 57/3/1
f 63/4/1 52/4/1 58/4/1
f 63/3/1 58/3/1 62/3/1
f 64/4/1 52/4/1 63/4/1
f 65/4/1 59/4/1 53/4/1
f 66/4/1 59/4/1 65/4/1
f 67/2/1 61/2/1 60/2/1
f 68/2/1 61/2/1 67/2/1
f 69/2/1 63/2/1 62/2/1
f 70/2/1 63/2/1 69/2/1
f 71/3/1 68/3/1 67/3/1
f 72/3/1 68/3/1 71/3/1
f 73/3/1 70/3/1 69/3/1
f 74/3/1 70/3/1 73/3/1
f 75/2/1 72/2/1 71/2/1
f 76/2/1 72/2/1 75/2/1
f 77/2/1 74/2/1 73/2/1
f 78/2/1 74/2/1 77/2/1
f 79/3/1 76/3/1 75/3/1
f 80/3/1 76/3/1 79/3/1
f 81/3/1 78/3/1 77/3/1
f 82/3/1 78/3/1 81/3/1
f 83/2/1 80/2/1 79/2/1
f 84/2/1 80/2/1 83/2/1
f 85/2/1 82/2/1 81/2/1
f 86/2/1 82/2/1 85/2/1
f 87/3/1 84/3/1 83/3/1
f 88/3/1 84/3/1 87/3/1
f 89/3/1 86/3/1 85/3/1
f 90/3/1 86/3/1 89/3/1
f 91/2/1 88/2/1 87/2/1
f 92/2/1 88/2/1 91/2/1
f 93/2/1 90/2/1 89/2/1
f 94/2/1 90/2/1 93/2/1
f 95/3/1 92/3/1 91/3/1
f 96/3/1 92/3/1 95/3/1
f 97/3/1 94/3/1 93/3/1
f 98/3/1 94/3/1 97/3/1
f 99/2/1 96/2/1 95/2/1
f 100/2/1 96/2/1 99/2/1
f 101/2/1 98/2/1 97/2/1
f 102/2/1 98/2/1 101/2/1
f 103/2/1 101/2/1 100/2/1
f 104/2/1 101/2/1 103/2/1
f 105/3/1 104/3/1 103/3/1
f 106/3/1 104/3/1 105/3/1
f 109/4/1 108/4/1 107/4/1
f 110/4/1 108/4/1 109/4/1
f 115/4/1 112/4/1 111/4/1
f 116/4/1 112/4/1 115/4/1
f 117/4/1 114/4/1 113/4/1
f 118/4/1 114/4/1 117/4/1
f 121/4/1 120/4/1 119/4/1
f 122/4/1 120/4/1 121/4/1
f 123/4/2 124/4/2 125/4/2
f 125/4/2 124/4/2 126/4/2
f 127/4/2 128/4/2 129/4/2
f 129/4/2 128/4/2 130/4/2
f 131/5/2 132/5/2 134/5/2
f 134/5/2 132/5/2 135/5/2
f 133/4/2 134/4/2 138/4/2
f 138/4/2 134/4/2 139/4/2
f 135/4/2 136/4/2 140/4/2
f 140/4/2 136/4/2 141/4/2
f 137/4/2 138/4/2 144/4/2
f 144/4/2 138/4/2 145/4/2
f 141/4/2 142/4/2 147/4/2
f 143/4/2 144/4/2 148/4/2
f 146/3/2 147/3/2 149/3/2
f 147/4/2 142/4/2 150/4/2
f 149/3/2 147/3/2 150/3/2
f 150/4/2 142/4/2 151/4/2
f 143/4/2 148/4/2 152/4/2
f 152/4/2 148/4/2 153/4/2
f 149/2/2 150/2/2 156/2/2
f 156/2/2 150/2/2 157/2/2
f 154/3/2 155/3/2 158/3/2
f 158/3/2 155/3/2 159/3/2
f 156/3/2 157/3/2 160/3/2
f 160/3/2 157/3/2 161/3/2
f 158/2/2 159/2/2 162/2/2
f 162/2/2 159/2/2 163/2/2
f 160/2/2 161/2/2 164/2/2
f 164/2/2 161/2/2 165/2/2
f 162/3/2 163/3/2 166/3/2
f 166/3/2 163/3/2 167/3/2
f 164/3/2 165/3/2 168/3/2
f 168/3/2 165/3/2 169/3/2
f 166/2/2 167/2/2 170/2/2
f 170/2/2 167/2/2 171/2/2
f 168/2/2 169/2/2 172/2/2
f 172/2/2 169/2/2 173/2/2
f 170/3/2 171/3/2 174/3/2
f 174/3/2 171/3/2 175/3/2
f 172/3/2 173/3/2 176/3/2
f 176/3/2 173/3/2 177/3/2
f 174/2/2 175/2/2 178/2/2
f 178/2/2 175/2/2 179/2/2
f 176/2/2 177/2/2 180/2/2
f 180/2/2 177/2/2 181/2/2
f 178/3/2 179/3/2 182/3/2
f 182/3/2 179/3/2 183/3/2
f 180/3/2 181/3/2 184/3/2
f 184/3/2 181/3/2 185/3/2
f 182/2/2 183/2/2 186/2/2
f 186/2/2 183/2/2 187/2/2
f 184/2/2 185/2/2 188/2/2
f 188/2/2 185/2/2 189/2/2
f 187/2/2 188/2/2 190/2/2
f 190/2/2 188/2/2 191/2/2
f 190/3/2 191/3/2 192/3/2
f 192/3/2 191/3/2 193/3/2
f 194/4/2 195/4/2 197/4/2
f 197/4/2 195/4/2 198/4/2
f 196/4/2 197/4/2 201/4/2
f 198/4/2 199/4/2 202/4/2
f 202/4/2 199/4/2 203/4/2
f 200/4/2 201/4/2 204/4/2
f 201/4/2 197/4/2 205/4/2
f 204/4/2 201/4/2 205/4/2
f 205/4/2 197/4/2 206/4/2
f 206/4/2 197/4/2 207/4/2
f 207/3/2 208/3/2 209/3/2
f 209/3/2 208/3/2 210/3/2
f 209/2/2 210/2/2 211/2/2
f 211/2/2 210/2/2 212/2/2
f 211/3/2 212/3/2 213/3/2
f 213/3/2 212/3/2 214/3/2
f 213/2/2 214/2/2 215/2/2
f 215/2/2 214/2/2 216/2/2
f 215/3/2 216/3/2 217/3/2
f 217/3/2 216/3/2 218/3/2
f 217/2/2 218/2/2 219/2/2
f 219/2/2 218/2/2 220/2/2
f 219/3/2 220/3/2 221/3/2
f 221/3/2 220/3/2 222/3/2
f 221/2/2 222/2/2 223/2/2
f 223/2/2 222/2/2 224/2/2
f 225/4/2 226/4/2 227/4/2
f 227/4/2 226/4/2 228/4/2
f 228/4/2 226/4/2 229/4/2
f 229/4/2 226/4/2 230/4/2
f 231/4/2 232/4/2 235/4/2
f 235/4/2 232/4/2 236/4/2
f 233/4/2 234/4/2 237/4/2
f 237/4/2 234/4/2 238/4/2
f 239/4/2 240/4/2 241/4/2
f 239/4/2 241/4/2 243/4/2
f 241/4/2 242/4/2 243/4/2
f 243/4/2 242/4/2 244/4/2
f 247/4/3 246/4/3 245/4/3
f 248/4/3 246/4/3 247/4/3
f 252/4/3 250/4/3 249/4/3
f 253/4/3 250/4/3 252/4/3
f 254/4/3 252/4/3 251/4/3
f 255/4/3 252/4/3 254/4/3
f 257/4/3 256/4/3 255/4/3
f 258/4/3 256/4/3 257/4/3
f 262/4/3 260/4/3 259/4/3
f 263/4/3 260/4/3 262/4/3
f 274/4/3 262/4/3 261/4/3
f 275/4/3 262/4/3 274/4/3
f 276/3/3 264/3/3 263/3/3
f 277/2/3 265/2/3 264/2/3
f 277/3/3 264/3/3 276/3/3
f 278/3/3 266/3/3 265/3/3
f 278/2/3 265/2/3 277/2/3
f 279/2/3 267/2/3 266/2/3
f 279/3/3 266/3/3 278/3/3
f 280/3/3 268/3/3 267/3/3
f 280/2/3 267/2/3 279/2/3
f 281/2/3 269/2/3 268/2/3
f 281/3/3 268/3/3 280/3/3
f 282/3/3 270/3/3 269/3/3
f 282/2/3 269/2/3 281/2/3
f 283/2/3 271/2/3 270/2/3
f 283/3/3 270/3/3 282/3/3
f 284/3/3 272/3/3 271/3/3
f 284/2/3 271/2/3 283/2/3
f 285/2/3 273/2/3 272/2/3
f 285/3/3 272/3/3 284/3/3
f 286/2/3 273/2/3 285/2/3
f 287/4/3 276/4/3 275/4/3
f 288/4/3 276/4/3 287/4/3
f 289/4/3 278/4/3 277/4/3
f 290/4/3 278/4/3 289/4/3
f 292/4/3 291/4/3 290/4/3
f 293/4/3 291/4/3 292/4/3
f 297/4/3 295/4/3 294/4/3
f 298/4/3 295/4/3 297/4/3
f 310/4/3 297/4/3 296/4/3
f 311/4/3 297/4/3 310/4/3
f 312/3/3 299/3/3 298/3/3
f 313/2/3 300/2/3 299/2/3
f 313/3/3 299/3/3 312/3/3
f 314/3/3 301/3/3 300/3/3
f 314/2/3 300/2/3 313/2/3
f 315/2/3 302/2/3 301/2/3
f 315/3/3 301/3/3 314/3/3
f 316/3/3 303/3/3 302/3/3
f 316/2/3 302/2/3 315/2/3
f 317/2/3 304/2/3 303/2/3
f 317/3/3 303/3/3 316/3/3
f 318/3/3 305/3/3 304/3/3
f 318/2/3 304/2/3 317/2/3
f 319/2/3 306/2/3 305/2/3
f 319/3/3 305/3/3 318/3/3
f 320/3/3 307/3/3 306/3/3
f 320/2/3 306/2/3 319/2/3
f 321/2/3 308/2/3 307/2/3
f 321/3/3 307/3/3 320/3/3
f 322/2/3 308/2/3 321/2/3
f 325/5/3 310/5/3 309/5/3
f 326/5/3 310/5/3 325/5/3
f 336/2/3 323/2/3 322/2/3
f 337/3/3 324/3/3 323/3/3
f 337/2/3 323/2/3 336/2/3
f 338/3/3 324/3/3 337/3/3
f 339/4/3 327/4/3 326/4/3
f 340/4/3 327/4/3 339/4/3
f 341/3/3 329/3/3 328/3/3
f 342/2/3 330/2/3 329/2/3
f 342/3/3 329/3/3 341/3/3
f 343/3/3 331/3/3 330/3/3
f 343/2/3 330/2/3 342/2/3
f 344/2/3 332/2/3 331/2/3
f 344/3/3 331/3/3 343/3/3
f 345/3/3 333/3/3 332/3/3
f 345/2/3 332/2/3 344/2/3
f 346/2/3 334/2/3 333/2/3
f 346/3/3 333/3/3 345/3/3
f 347/3/3 335/3/3 334/3/3
f 347/2/3 334/2/3 346/2/3
f 348/2/3 336/2/3 335/2/3
f 348/3/3 335/3/3 347/3/3
f 349/2/3 336/2/3 348/2/3
f 350/4/3 341/4/3 340/4/3
f 351/4/3 341/4/3 350/4/3
f 352/4/3 341/4/3 351/4/3
f 354/4/3 353/4/3 352/4/3
f 354/4/3 352/4/3 351/4/3
f 355/4/3 353/4/3 354/4/3
f 358/4/3 357/4/3 356/4/3
f 359/4/3 357/4/3 358/4/3
f 362/4/3 361/4/3 360/4/3
f 363/4/3 361/4/3 362/4/3
f 364/4/4 365/4/4 367/4/4
f 365/4/4 366/4/4 367/4/4
f 367/4/4 366/4/4 368/4/4
f 368/4/4 366/4/4 369/4/4
f 370/4/4 371/4/4 372/4/4
f 372/4/4 371/4/4 373/4/4
f 374/4/4 375/4/4 376/4/4
f 376/4/4 375/4/4 377/4/4
f 378/4/4 379/4/4 380/4/4
f 380/4/4 379/4/4 381/4/4
f 382/4/4 383/4/4 385/4/4
f 385/4/4 383/4/4 386/4/4
f 384/4/4 385/4/4 398/4/4
f 398/4/4 385/4/4 399/4/4
f 386/3/4 387/3/4 400/3/4
f 387/2/4 388/2/4 401/2/4
f 400/3/4 387/3/4 401/3/4
f 388/3/4 389/3/4 402/3/4
f 401/2/4 388/2/4 402/2/4
f 389/2/4 390/2/4 403/2/4
f 402/3/4 389/3/4 403/3/4
f 390/3/4 391/3/4 404/3/4
f 403/2/4 390/2/4 404/2/4
f 391/2/4 392/2/4 405/2/4
f 404/3/4 391/3/4 405/3/4
f 392/3/4 393/3/4 406/3/4
f 405/2/4 392/2/4 406/2/4
f 393/2/4 394/2/4 407/2/4
f 406/3/4 393/3/4 407/3/4
f 394/3/4 395/3/4 408/3/4
f 407/2/4 394/2/4 408/2/4
f 395/2/4 396/2/4 409/2/4
f 408/3/4 395/3/4 409/3/4
f 409/2/4 396/2/4 410/2/4
f 397/5/4 398/5/4 413/5/4
f 413/5/4 398/5/4 414/5/4
f 410/2/4 411/2/4 426/2/4
f 411/3/4 412/3/4 427/3/4
f 426/2/4 411/2/4 427/2/4
f 427/3/4 412/3/4 428/3/4
f 414/4/4 415/4/4 429/4/4
f 429/4/4 415/4/4 430/4/4
f 416/3/4 417/3/4 431/3/4
f 417/2/4 418/2/4 432/2/4
f 431/3/4 417/3/4 432/3/4
f 418/3/4 419/3/4 433/3/4
f 432/2/4 418/2/4 433/2/4
f 419/2/4 420/2/4 434/2/4
f 433/3/4 419/3/4 434/3/4
f 420/3/4 421/3/4 435/3/4
f 434/2/4 420/2/4 435/2/4
f 421/2/4 422/2/4 436/2/4
f 435/3/4 421/3/4 436/3/4
f 422/3/4 423/3/4 437/3/4
f 436/2/4 422/2/4 437/2/4
f 423/2/4 424/2/4 438/2/4
f 437/3/4 423/3/4 438/3/4
f 424/3/4 425/3/4 439/3/4
f 438/2/4 424/2/4 439/2/4
f 425/2/4 426/2/4 440/2/4
f 439/3/4 425/3/4 440/3/4
f 440/2/4 426/2/4 441/2/4
f 430/4/4 431/4/4 442/4/4
f 432/4/4 433/4/4 442/4/4
f 431/4/4 432/4/4 442/4/4
f 442/4/4 433/4/4 443/4/4
f 443/4/4 433/4/4 444/4/4
f 444/4/4 445/4/4 446/4/4
f 443/4/4 444/4/4 446/4/4
f 446/4/4 445/4/4 447/4/4
f 448/4/4 449/4/4 451/4/4
f 451/4/4 449/4/4 452/4/4
f 450/4/4 451/4/4 454/4/4
f 454/4/4 451/4/4 455/4/4
f 453/4/4 454/4/4 466/4/4
f 466/4/4 454/4/4 467/4/4
f 456/2/4 457/2/4 469/2/4
f 457/3/4 458/3/4 470/3/4
f 469/2/4 457/2/4 470/2/4
f 458/2/4 459/2/4 471/2/4
f 470/3/4 458/3/4 471/3/4
f 459/3/4 460/3/4 472/3/4
f 471/2/4 459/2/4 472/2/4
f 460/2/4 461/2/4 473/2/4
f 472/3/4 460/3/4 473/3/4
f 461/3/4 462/3/4 474/3/4
f 473/2/4 461/2/4 474/2/4
f 462/2/4 463/2/4 475/2/4
f 474/3/4 462/3/4 475/3/4
f 463/3/4 464/3/4 476/3/4
f 475/2/4 463/2/4 476/2/4
f 464/2/4 465/2/4 477/2/4
f 476/3/4 464/3/4 477/3/4
f 477/2/4 465/2/4 478/2/4
f 467/4/4 468/4/4 479/4/4
f 479/4/4 468/4/4 480/4/4
f 481/4/4 482/4/4 483/4/4
f 483/4/4 482/4/4 484/4/4
f 485/4/4 486/4/4 487/4/4
f 487/4/4 486/4/4 488/4/4
f 491/5/5 490/5/5 489/5/5
f 492/5/5 490/5/5 491/5/5
f 496/4/5 494/4/5 493/4/5
f 497/4/5 494/4/5 496/4/5
f 499/4/5 496/4/5 495/4/5
f 500/4/5 496/4/5 499/4/5
f 501/4/5 498/4/5 497/4/5
f 502/4/5 498/4/5 501/4/5
f 503/4/5 501/4/5 500/4/5
f 504/4/5 501/4/5 503/4/5
f 508/4/5 506/4/5 505/4/5
f 509/4/5 506/4/5 508/4/5
f 512/4/5 508/4/5 507/4/5
f 513/4/5 508/4/5 512/4/5
f 514/4/5 510/4/5 509/4/5
f 515/4/5 510/4/5 514/4/5
f 517/4/5 512/4/5 511/4/5
f 518/4/5 512/4/5 517/4/5
f 521/4/5 516/4/5 515/4/5
f 522/4/5 516/4/5 521/4/5
f 523/4/5 519/4/5 518/4/5
f 524/4/5 519/4/5 523/4/5
f 525/4/5 521/4/5 520/4/5
f 526/4/5 521/4/5 525/4/5
f 527/4/5 525/4/5 524/4/5
f 528/4/5 525/4/5 527/4/5
f 532/4/5 530/4/5 529/4/5
f 533/4/5 530/4/5 532/4/5
f 535/4/5 532/4/5 531/4/5
f 536/4/5 532/4/5 535/4/5
f 537/4/5 534/4/5 533/4/5
f 538/4/5 534/4/5 537/4/5
f 541/4/5 540/4/5 539/4/5
f 542/4/5 540/4/5 541/4/5
f 545/4/5 544/4/5 543/4/5
f 546/4/5 544/4/5 545/4/5
f 549/4/5 548/4/5 547/4/5
f 550/4/5 548/4/5 549/4/5
f 553/4/5 552/4/5 551/4/5
f 554/4/5 552/4/5 553/4/5
f 557/4/5 556/4/5 555/4/5
f 558/4/5 556/4/5 557/4/5
f 559/4/6 560/4/6 562/4/6
f 562/4/6 560/4/6 563/4/6
f 561/4/6 562/4/6 565/4/6
f 565/4/6 562/4/6 566/4/6
f 564/4/6 565/4/6 567/4/6
f 567/4/6 565/4/6 568/4/6
f 568/4/6 569/4/6 572/4/6
f 572/4/6 569/4/6 573/4/6
f 570/4/6 571/4/6 574/4/6
f 574/4/6 571/4/6 575/4/6
f 576/4/6 577/4/6 580/4/6
f 580/4/6 577/4/6 581/4/6
f 578/4/6 579/4/6 582/4/6
f 582/4/6 579/4/6 583/4/6
f 584/4/6 585/4/6 586/4/6
f 586/4/6 585/4/6 587/4/6
f 588/4/6 589/4/6 590/4/6
f 590/4/6 589/4/6 591/4/6
f 592/4/6 593/4/6 594/4/6
f 594/4/6 593/4/6 595/4/6
f 596/4/6 597/4/6 598/4/6
f 598/4/6 597/4/6 599/4/6
f 599/4/6 600/4/6 601/4/6
f 601/4/6 600/4/6 602/4/6
f 603/4/6 604/4/6 605/4/6
f 605/4/6 604/4/6 606/4/6
f 606/4/6 607/4/6 609/4/6
f 609/4/6 607/4/6 610/4/6
f 608/4/6 609/4/6 611/4/6
f 611/4/6 609/4/6 612/4/6
f 613/2/6 614/2/6 616/2/6
f 616/2/6 614/2/6 617/2/6
f 615/2/6 616/2/6 619/2/6
f 619/2/6 616/2/6 620/2/6
f 617/2/6 618/2/6 621/2/6
f 621/2/6 618/2/6 622/2/6
f 620/2/6 621/2/6 623/2/6
f 623/2/6 621/2/6 624/2/6
f 625/3/6 626/3/6 627/3/6
f 627/3/6 626/3/6 628/3/6
